# Blender 5.0.1
# www.blender.org
mtllib item-brow1.mtl
o eyebrow-left
v 0.153597 0.022180 -0.015461
v -0.150650 -0.037266 -0.015461
v 0.146817 0.056880 -0.014031
v -0.157429 -0.002567 -0.014031
v 0.144009 0.071252 -0.008996
v -0.160238 0.011806 -0.008996
v 0.146817 0.056880 0.005433
v -0.157429 -0.002567 0.005433
v 0.153597 0.022180 0.011409
v -0.150650 -0.037266 0.011409
v 0.160377 -0.012519 0.005433
v -0.143870 -0.071966 0.005433
v 0.163185 -0.026892 -0.008996
v -0.141061 -0.086339 -0.008996
v 0.160377 -0.012519 -0.014031
v -0.143870 -0.071966 -0.014031
v 0.075326 0.018628 -0.015461
v -0.001476 0.007553 -0.015461
v -0.076798 -0.011095 -0.015461
v -0.083577 0.023604 -0.012923
v -0.008256 0.042252 -0.012923
v 0.068546 0.053327 -0.012923
v -0.086386 0.037977 -0.003989
v -0.011064 0.056625 -0.003989
v 0.065738 0.067700 -0.003989
v -0.083577 0.023604 0.021613
v -0.008256 0.042252 0.021613
v 0.068546 0.053327 0.021613
v -0.076798 -0.011095 0.032218
v -0.001476 0.007553 0.032218
v 0.075326 0.018628 0.032218
v -0.070018 -0.045794 0.021613
v 0.005304 -0.027146 0.021613
v 0.082106 -0.016071 0.021613
v -0.067209 -0.060167 -0.003989
v 0.008112 -0.041519 -0.003989
v 0.084914 -0.030444 -0.003989
v -0.070018 -0.045794 -0.012923
v 0.005304 -0.027146 -0.012923
v 0.082106 -0.016071 -0.012923
vn -0.0119 0.0548 -0.9984
vn -0.1104 0.4169 -0.9022
vn -0.3449 0.7388 0.5789
vn -0.2949 0.1672 0.9408
vn -0.1480 -0.2571 0.9550
vn 0.1932 -0.7839 0.5900
vn -0.9814 -0.1918 -0.0000
vn 0.1794 -0.4014 -0.8982
vn 0.0259 -0.0520 -0.9983
vn 0.9814 0.1918 -0.0000
vn -0.0044 -0.0579 -0.9983
vn 0.0102 -0.0709 -0.9974
vn 0.0172 -0.0696 -0.9974
vn -0.0151 -0.4394 -0.8982
vn 0.0744 -0.5159 -0.8534
vn 0.1253 -0.5060 -0.8534
vn 0.1161 -0.7990 0.5900
vn 0.1239 -0.8594 0.4961
vn 0.2087 -0.8428 0.4960
vn 0.2339 -0.1825 0.9550
vn 0.0411 -0.2847 0.9577
vn 0.0691 -0.2792 0.9577
vn 0.2102 0.2659 0.9408
vn -0.0411 0.2847 0.9577
vn -0.0691 0.2792 0.9577
vn 0.0414 0.8143 0.5789
vn -0.1239 0.8594 0.4961
vn -0.2087 0.8428 0.4961
vn -0.0547 0.4278 -0.9022
vn -0.0744 0.5159 -0.8534
vn -0.1253 0.5060 -0.8534
vn -0.0096 0.0552 -0.9984
vn -0.0102 0.0709 -0.9974
vn -0.0172 0.0696 -0.9974
vt 1.000000 0.875000
vt 1.000000 1.000000
vt 0.875000 1.000000
vt 0.875000 0.875000
vt 0.750000 1.000000
vt 0.750000 0.875000
vt 0.625000 1.000000
vt 0.625000 0.875000
vt 0.500000 1.000000
vt 0.500000 0.875000
vt 0.375000 1.000000
vt 0.375000 0.875000
vt 0.250000 1.000000
vt 0.250000 0.875000
vt 0.419706 0.419706
vt 0.250000 0.490000
vt 0.080294 0.419706
vt 0.010000 0.250000
vt 0.080294 0.080294
vt 0.250000 0.010000
vt 0.419706 0.080294
vt 0.490000 0.250000
vt 0.125000 1.000000
vt 0.125000 0.875000
vt 0.000000 1.000000
vt 0.000000 0.875000
vt 0.750000 0.490000
vt 0.919706 0.419706
vt 0.990000 0.250000
vt 0.919706 0.080294
vt 0.750000 0.010000
vt 0.580294 0.080294
vt 0.510000 0.250000
vt 0.580294 0.419706
vt 0.125000 0.500000
vt 0.125000 0.625000
vt 0.000000 0.625000
vt 0.000000 0.500000
vt 0.125000 0.750000
vt 0.000000 0.750000
vt 0.250000 0.500000
vt 0.250000 0.625000
vt 0.250000 0.750000
vt 0.375000 0.500000
vt 0.375000 0.625000
vt 0.375000 0.750000
vt 0.500000 0.500000
vt 0.500000 0.625000
vt 0.500000 0.750000
vt 0.625000 0.500000
vt 0.625000 0.625000
vt 0.625000 0.750000
vt 0.750000 0.500000
vt 0.750000 0.625000
vt 0.750000 0.750000
vt 0.875000 0.500000
vt 0.875000 0.625000
vt 0.875000 0.750000
vt 1.000000 0.500000
vt 1.000000 0.625000
vt 1.000000 0.750000
s 0
usemtl pupilblack
f 19/1/1 2/2/1 4/3/1 20/4/1
f 20/4/2 4/3/2 6/5/2 23/6/2
f 23/6/3 6/5/3 8/7/3 26/8/3
f 26/8/4 8/7/4 10/9/4 29/10/4
f 29/10/5 10/9/5 12/11/5 32/12/5
f 32/12/6 12/11/6 14/13/6 35/14/6
f 4/15/7 2/16/7 16/17/7 14/18/7 12/19/7 10/20/7 8/21/7 6/22/7
f 35/14/8 14/13/8 16/23/8 38/24/8
f 38/24/9 16/23/9 2/25/9 19/26/9
f 1/27/10 3/28/10 5/29/10 7/30/10 9/31/10 11/32/10 13/33/10 15/34/10
f 15/35/11 40/36/11 17/37/11 1/38/11
f 40/36/12 39/39/12 18/40/12 17/37/12
f 39/39/13 38/24/13 19/26/13 18/40/13
f 13/41/14 37/42/14 40/36/14 15/35/14
f 37/42/15 36/43/15 39/39/15 40/36/15
f 36/43/16 35/14/16 38/24/16 39/39/16
f 11/44/17 34/45/17 37/42/17 13/41/17
f 34/45/18 33/46/18 36/43/18 37/42/18
f 33/46/19 32/12/19 35/14/19 36/43/19
f 9/47/20 31/48/20 34/45/20 11/44/20
f 31/48/21 30/49/21 33/46/21 34/45/21
f 30/49/22 29/10/22 32/12/22 33/46/22
f 7/50/23 28/51/23 31/48/23 9/47/23
f 28/51/24 27/52/24 30/49/24 31/48/24
f 27/52/25 26/8/25 29/10/25 30/49/25
f 5/53/26 25/54/26 28/51/26 7/50/26
f 25/54/27 24/55/27 27/52/27 28/51/27
f 24/55/28 23/6/28 26/8/28 27/52/28
f 3/56/29 22/57/29 25/54/29 5/53/29
f 22/57/30 21/58/30 24/55/30 25/54/30
f 21/58/31 20/4/31 23/6/31 24/55/31
f 1/59/32 17/60/32 22/57/32 3/56/32
f 17/60/33 18/61/33 21/58/33 22/57/33
f 18/61/34 19/1/34 20/4/34 21/58/34
