# Blender 5.0.1
# www.blender.org
mtllib item-brow2.mtl
o eyebrow-right
v -0.035221 -1.075673 0.626802
v -0.326669 -1.066201 0.524722
v -0.042476 -1.039044 0.626048
v -0.320941 -1.031477 0.528515
v -0.047183 -1.024383 0.630692
v -0.320293 -1.017052 0.535035
v -0.050577 -1.036096 0.647536
v -0.328390 -1.030702 0.550232
v -0.046169 -1.072670 0.656549
v -0.337006 -1.065425 0.554683
v -0.038373 -1.107547 0.651810
v -0.340961 -1.100147 0.545828
v -0.030038 -1.124836 0.636697
v -0.338071 -1.115261 0.528808
v -0.030314 -1.110543 0.630308
v -0.333512 -1.100922 0.524112
v -0.108569 -1.092774 0.601112
v -0.181763 -1.094120 0.575475
v -0.256197 -1.088324 0.549405
v -0.250751 -1.053601 0.554001
v -0.182787 -1.058844 0.577806
v -0.111655 -1.057499 0.602720
v -0.251100 -1.039219 0.563345
v -0.185583 -1.046501 0.586293
v -0.115860 -1.043932 0.610713
v -0.262167 -1.053601 0.586596
v -0.194203 -1.058844 0.610401
v -0.123071 -1.057499 0.635315
v -0.271958 -1.088324 0.594403
v -0.197524 -1.094119 0.620474
v -0.124330 -1.092774 0.646111
v -0.274738 -1.123046 0.582193
v -0.193905 -1.129386 0.610505
v -0.118577 -1.128049 0.636889
v -0.268879 -1.137429 0.557118
v -0.185419 -1.143990 0.586350
v -0.109183 -1.142661 0.613052
v -0.263322 -1.123046 0.549598
v -0.183418 -1.130707 0.577584
v -0.105935 -1.129644 0.604723
vn 0.3511 0.0564 -0.9346
vn 0.4407 0.4295 -0.7882
vn -0.0101 0.8104 0.5858
vn -0.4133 0.2634 0.8717
vn -0.5419 -0.1954 0.8174
vn -0.4659 -0.7673 0.4408
vn -0.9269 0.1884 -0.3246
vn 0.1974 -0.4417 -0.8752
vn 0.3190 -0.0585 -0.9460
vn 0.9291 0.1779 0.3243
vn 0.3374 -0.0577 -0.9396
vn 0.3308 -0.0689 -0.9412
vn 0.3243 -0.0704 -0.9433
vn 0.3675 -0.4719 -0.8014
vn 0.2812 -0.5618 -0.7780
vn 0.2360 -0.5400 -0.8079
vn 0.0292 -0.7668 0.6413
vn -0.1503 -0.8684 0.4726
vn -0.2240 -0.8670 0.4452
vn -0.1010 -0.2129 0.9718
vn -0.3119 -0.2878 0.9055
vn -0.3365 -0.2881 0.8965
vn -0.2113 0.2512 0.9446
vn -0.3214 0.2877 0.9022
vn -0.2966 0.2881 0.9105
vn -0.3402 0.8390 0.4247
vn -0.1714 0.8918 0.4187
vn -0.0799 0.8820 0.4645
vn 0.1548 0.4440 -0.8825
vn 0.2582 0.5672 -0.7821
vn 0.3214 0.5514 -0.7698
vn 0.3122 0.0562 -0.9484
vn 0.3285 0.0717 -0.9418
vn 0.3347 0.0718 -0.9396
vt 1.000000 0.875000
vt 1.000000 1.000000
vt 0.875000 1.000000
vt 0.875000 0.875000
vt 0.750000 1.000000
vt 0.750000 0.875000
vt 0.625000 1.000000
vt 0.625000 0.875000
vt 0.500000 1.000000
vt 0.500000 0.875000
vt 0.375000 1.000000
vt 0.375000 0.875000
vt 0.250000 1.000000
vt 0.250000 0.875000
vt 0.419706 0.419706
vt 0.250000 0.490000
vt 0.080294 0.419706
vt 0.010000 0.250000
vt 0.080294 0.080294
vt 0.250000 0.010000
vt 0.419706 0.080294
vt 0.490000 0.250000
vt 0.125000 1.000000
vt 0.125000 0.875000
vt 0.000000 1.000000
vt 0.000000 0.875000
vt 0.750000 0.490000
vt 0.919706 0.419706
vt 0.990000 0.250000
vt 0.919706 0.080294
vt 0.750000 0.010000
vt 0.580294 0.080294
vt 0.510000 0.250000
vt 0.580294 0.419706
vt 0.125000 0.500000
vt 0.125000 0.625000
vt 0.000000 0.625000
vt 0.000000 0.500000
vt 0.125000 0.750000
vt 0.000000 0.750000
vt 0.250000 0.500000
vt 0.250000 0.625000
vt 0.250000 0.750000
vt 0.375000 0.500000
vt 0.375000 0.625000
vt 0.375000 0.750000
vt 0.500000 0.500000
vt 0.500000 0.625000
vt 0.500000 0.750000
vt 0.625000 0.500000
vt 0.625000 0.625000
vt 0.625000 0.750000
vt 0.750000 0.500000
vt 0.750000 0.625000
vt 0.750000 0.750000
vt 0.875000 0.500000
vt 0.875000 0.625000
vt 0.875000 0.750000
vt 1.000000 0.500000
vt 1.000000 0.625000
vt 1.000000 0.750000
s 0
usemtl pupilblack
f 19/1/1 2/2/1 4/3/1 20/4/1
f 20/4/2 4/3/2 6/5/2 23/6/2
f 23/6/3 6/5/3 8/7/3 26/8/3
f 26/8/4 8/7/4 10/9/4 29/10/4
f 29/10/5 10/9/5 12/11/5 32/12/5
f 32/12/6 12/11/6 14/13/6 35/14/6
f 4/15/7 2/16/7 16/17/7 14/18/7 12/19/7 10/20/7 8/21/7 6/22/7
f 35/14/8 14/13/8 16/23/8 38/24/8
f 38/24/9 16/23/9 2/25/9 19/26/9
f 1/27/10 3/28/10 5/29/10 7/30/10 9/31/10 11/32/10 13/33/10 15/34/10
f 15/35/11 40/36/11 17/37/11 1/38/11
f 40/36/12 39/39/12 18/40/12 17/37/12
f 39/39/13 38/24/13 19/26/13 18/40/13
f 13/41/14 37/42/14 40/36/14 15/35/14
f 37/42/15 36/43/15 39/39/15 40/36/15
f 36/43/16 35/14/16 38/24/16 39/39/16
f 11/44/17 34/45/17 37/42/17 13/41/17
f 34/45/18 33/46/18 36/43/18 37/42/18
f 33/46/19 32/12/19 35/14/19 36/43/19
f 9/47/20 31/48/20 34/45/20 11/44/20
f 31/48/21 30/49/21 33/46/21 34/45/21
f 30/49/22 29/10/22 32/12/22 33/46/22
f 7/50/23 28/51/23 31/48/23 9/47/23
f 28/51/24 27/52/24 30/49/24 31/48/24
f 27/52/25 26/8/25 29/10/25 30/49/25
f 5/53/26 25/54/26 28/51/26 7/50/26
f 25/54/27 24/55/27 27/52/27 28/51/27
f 24/55/28 23/6/28 26/8/28 27/52/28
f 3/56/29 22/57/29 25/54/29 5/53/29
f 22/57/30 21/58/30 24/55/30 25/54/30
f 21/58/31 20/4/31 23/6/31 24/55/31
f 1/59/32 17/60/32 22/57/32 3/56/32
f 17/60/33 18/61/33 21/58/33 22/57/33
f 18/61/34 19/1/34 20/4/34 21/58/34
