# Blender 5.0.1
# www.blender.org
mtllib item-hat.mtl
o hat
v 0.042956 -1.749924 -0.160312
v -0.000000 -1.712332 -0.270865
v -0.070105 -1.712332 -0.261635
v -0.130188 -1.525703 -0.485868
v -0.155499 -1.252033 -0.580330
v -0.135432 -1.712332 -0.234576
v -0.251504 -1.525703 -0.435617
v -0.300401 -1.252033 -0.520310
v -0.191530 -1.712332 -0.191530
v -0.355680 -1.525703 -0.355680
v -0.424831 -1.252033 -0.424831
v -0.234576 -1.712332 -0.135432
v -0.435617 -1.525703 -0.251504
v -0.520310 -1.252033 -0.300401
v -0.261635 -1.712332 -0.070105
v -0.485867 -1.525703 -0.130188
v -0.580330 -1.252033 -0.155499
v -0.270865 -1.712332 0.000000
v -0.503007 -1.525703 0.000000
v -0.600802 -1.252033 -0.000000
v -0.261635 -1.712332 0.070105
v -0.485867 -1.525703 0.130188
v -0.580330 -1.252033 0.155499
v -0.234576 -1.712332 0.135432
v -0.435617 -1.525703 0.251503
v -0.520310 -1.252033 0.300401
v -0.191530 -1.712332 0.191530
v -0.355680 -1.525703 0.355680
v -0.424831 -1.252033 0.424831
v -0.135432 -1.712332 0.234576
v -0.251503 -1.525703 0.435617
v -0.300401 -1.252033 0.520310
v -0.070105 -1.712332 0.261635
v -0.130188 -1.525703 0.485867
v -0.155499 -1.252033 0.580330
v -0.000000 -1.712332 0.270865
v 0.000000 -1.525703 0.503007
v -0.000000 -1.252033 0.600802
v 0.070105 -1.712332 0.261635
v 0.130188 -1.525703 0.485867
v 0.155499 -1.252033 0.580330
v 0.135432 -1.712332 0.234576
v 0.251503 -1.525703 0.435617
v 0.300401 -1.252033 0.520310
v 0.191530 -1.712332 0.191530
v 0.355680 -1.525703 0.355680
v 0.424831 -1.252033 0.424831
v 0.234576 -1.712332 0.135432
v 0.435617 -1.525703 0.251503
v 0.520310 -1.252033 0.300401
v 0.261635 -1.712332 0.070105
v 0.485867 -1.525703 0.130188
v 0.580330 -1.252033 0.155499
v 0.270865 -1.712332 0.000000
v 0.503007 -1.525703 -0.000000
v 0.600802 -1.252033 0.000000
v 0.261635 -1.712332 -0.070105
v 0.485867 -1.525703 -0.130188
v 0.580330 -1.252033 -0.155499
v 0.234576 -1.712332 -0.135432
v 0.435617 -1.525703 -0.251503
v 0.520310 -1.252033 -0.300401
v 0.191530 -1.712332 -0.191530
v 0.355679 -1.525703 -0.355680
v 0.424831 -1.252033 -0.424831
v 0.135432 -1.712332 -0.234576
v 0.251503 -1.525703 -0.435617
v 0.300401 -1.252033 -0.520310
v 0.070105 -1.712332 -0.261635
v 0.130188 -1.525703 -0.485867
v 0.155499 -1.252033 -0.580330
v -0.000000 -1.525703 -0.503007
v -0.000000 -1.252033 -0.600802
v -0.179189 -1.345037 -0.790488
v -0.346166 -1.345037 -0.708732
v -0.489553 -1.345037 -0.578678
v -0.599578 -1.361832 -0.409187
v -0.668742 -1.423630 -0.211811
v -0.692333 -1.445119 -0.000000
v -0.668742 -1.423630 0.211811
v -0.599578 -1.361832 0.409187
v -0.489553 -1.345037 0.578677
v -0.346166 -1.345037 0.708732
v -0.179189 -1.345037 0.790488
v -0.000000 -1.345037 0.818374
v 0.179189 -1.345037 0.790488
v 0.346166 -1.345037 0.708732
v 0.489553 -1.345037 0.578677
v 0.599578 -1.361833 0.409187
v 0.668742 -1.423630 0.211811
v 0.692333 -1.445119 0.000000
v 0.668742 -1.423630 -0.211811
v 0.599578 -1.361833 -0.409187
v 0.489553 -1.345037 -0.578677
v 0.346166 -1.345037 -0.708732
v 0.179189 -1.345037 -0.790488
v -0.000000 -1.345037 -0.818373
v -0.179189 -1.430774 -0.790488
v -0.346166 -1.430774 -0.708732
v -0.489553 -1.430774 -0.578678
v -0.599578 -1.451047 -0.409187
v -0.668742 -1.512845 -0.211811
v -0.692333 -1.534334 -0.000000
v -0.668742 -1.512845 0.211811
v -0.599578 -1.451047 0.409187
v -0.489553 -1.430774 0.578677
v -0.346166 -1.430774 0.708732
v -0.179189 -1.430774 0.790488
v -0.000000 -1.430774 0.818374
v 0.179189 -1.430774 0.790488
v 0.346166 -1.430774 0.708732
v 0.489553 -1.430774 0.578677
v 0.599578 -1.451048 0.409187
v 0.668742 -1.512845 0.211811
v 0.692333 -1.534334 0.000000
v 0.668742 -1.512845 -0.211811
v 0.599578 -1.451048 -0.409187
v 0.489553 -1.430774 -0.578677
v 0.346166 -1.430774 -0.708732
v 0.179189 -1.430774 -0.790488
v -0.000000 -1.430774 -0.818373
v -0.109076 -1.619017 -0.407079
v -0.210720 -1.619017 -0.364977
v -0.298002 -1.619017 -0.298002
v -0.364977 -1.619017 -0.210720
v -0.407079 -1.619017 -0.109076
v -0.421439 -1.619017 0.000000
v -0.407079 -1.619017 0.109076
v -0.364977 -1.619017 0.210720
v -0.298002 -1.619017 0.298002
v -0.210719 -1.619017 0.364977
v -0.109076 -1.619017 0.407079
v 0.000000 -1.619017 0.421439
v 0.109076 -1.619017 0.407079
v 0.210720 -1.619017 0.364977
v 0.298002 -1.619017 0.298002
v 0.364977 -1.619017 0.210719
v 0.407079 -1.619017 0.109076
v 0.421439 -1.619017 -0.000000
v 0.407079 -1.619017 -0.109076
v 0.364977 -1.619017 -0.210719
v 0.298002 -1.619017 -0.298002
v 0.210719 -1.619017 -0.364977
v 0.109076 -1.619017 -0.407079
v -0.000000 -1.619017 -0.421439
v -0.143952 -1.388868 -0.537236
v -0.278094 -1.388868 -0.481673
v -0.393284 -1.388868 -0.393284
v -0.481673 -1.388868 -0.278094
v -0.537236 -1.388868 -0.143952
v -0.556188 -1.388868 0.000000
v -0.537236 -1.388868 0.143952
v -0.481673 -1.388868 0.278094
v -0.393284 -1.388868 0.393284
v -0.278094 -1.388868 0.481673
v -0.143952 -1.388868 0.537236
v -0.000000 -1.388868 0.556188
v 0.143952 -1.388868 0.537236
v 0.278094 -1.388868 0.481673
v 0.393284 -1.388868 0.393284
v 0.481673 -1.388868 0.278094
v 0.537236 -1.388868 0.143952
v 0.556188 -1.388868 -0.000000
v 0.537236 -1.388868 -0.143952
v 0.481672 -1.388868 -0.278094
v 0.393284 -1.388868 -0.393284
v 0.278094 -1.388868 -0.481672
v 0.143952 -1.388868 -0.537236
v -0.000000 -1.388868 -0.556187
v -0.000000 -1.749924 -0.165968
v -0.042956 -1.749924 -0.160312
v -0.082984 -1.749924 -0.143732
v -0.117357 -1.749924 -0.117357
v -0.143732 -1.749924 -0.082984
v -0.160312 -1.749924 -0.042956
v -0.165968 -1.749924 0.000000
v -0.160312 -1.749924 0.042956
v -0.143732 -1.749924 0.082984
v -0.117357 -1.749924 0.117357
v -0.082984 -1.749924 0.143732
v -0.042956 -1.749924 0.160312
v -0.000000 -1.749924 0.165968
v 0.042956 -1.749924 0.160312
v 0.082984 -1.749924 0.143732
v 0.117357 -1.749924 0.117357
v 0.143732 -1.749924 0.082984
v 0.160312 -1.749924 0.042956
v 0.165968 -1.749924 0.000000
v 0.160312 -1.749924 -0.042956
v 0.143732 -1.749924 -0.082984
v 0.117357 -1.749924 -0.117357
v 0.082984 -1.749924 -0.143732
vn 0.0444 -0.9404 0.3370
vn -0.0692 -0.8480 -0.5255
vn -0.1218 -0.3596 -0.9251
vn -0.2028 -0.8480 -0.4897
vn -0.3571 -0.3596 -0.8621
vn 0.3141 -0.9404 -0.1301
vn 0.2069 -0.9404 -0.2697
vn -0.3227 -0.8480 -0.4205
vn -0.5680 -0.3596 -0.7403
vn -0.7403 -0.3596 -0.5680
vn -0.0444 -0.9404 -0.3370
vn -0.4205 -0.8480 -0.3227
vn -0.4897 -0.8480 -0.2028
vn -0.8621 -0.3596 -0.3571
vn -0.3370 -0.9404 -0.0444
vn -0.3141 -0.9404 0.1301
vn -0.5255 -0.8480 -0.0692
vn -0.9251 -0.3596 -0.1218
vn -0.9251 -0.3596 0.1218
vn 0.1301 -0.9404 0.3141
vn -0.5255 -0.8480 0.0692
vn -0.4897 -0.8480 0.2028
vn -0.8621 -0.3596 0.3571
vn 0.3370 -0.9404 -0.0444
vn 0.2697 -0.9404 -0.2069
vn -0.4205 -0.8480 0.3227
vn -0.7403 -0.3596 0.5680
vn -0.5681 -0.3596 0.7403
vn 0.0444 -0.9404 -0.3370
vn -0.3227 -0.8480 0.4205
vn -0.3141 -0.9404 -0.1301
vn -0.2028 -0.8480 0.4897
vn -0.3571 -0.3596 0.8621
vn -0.3370 -0.9404 0.0444
vn -0.0692 -0.8480 0.5255
vn -0.1218 -0.3596 0.9251
vn 0.0692 -0.8480 0.5255
vn 0.1218 -0.3596 0.9251
vn 0.2697 -0.9404 0.2069
vn 0.3370 -0.9404 0.0444
vn 0.2028 -0.8480 0.4897
vn 0.3571 -0.3596 0.8621
vn 0.5681 -0.3596 0.7403
vn 0.1301 -0.9404 -0.3141
vn 0.3227 -0.8480 0.4205
vn 0.4205 -0.8480 0.3227
vn 0.7403 -0.3596 0.5680
vn -0.1301 -0.9404 -0.3141
vn -0.2697 -0.9404 -0.2069
vn 0.4897 -0.8480 0.2028
vn 0.8621 -0.3596 0.3571
vn 0.9251 -0.3596 0.1218
vn -0.2069 -0.9404 0.2697
vn 0.5255 -0.8480 0.0692
vn 0.5255 -0.8480 -0.0692
vn 0.9251 -0.3596 -0.1218
vn 0.2069 -0.9404 0.2697
vn 0.3141 -0.9404 0.1301
vn 0.4897 -0.8480 -0.2028
vn 0.8621 -0.3596 -0.3571
vn 0.7403 -0.3596 -0.5681
vn -0.1301 -0.9404 0.3141
vn 0.4205 -0.8480 -0.3227
vn 0.3227 -0.8480 -0.4205
vn 0.5680 -0.3596 -0.7403
vn -0.0444 -0.9404 0.3370
vn -0.2069 -0.9404 -0.2697
vn 0.2028 -0.8480 -0.4897
vn 0.3571 -0.3596 -0.8621
vn 0.1218 -0.3596 -0.9251
vn -0.2697 -0.9404 0.2069
vn 0.0692 -0.8480 -0.5255
vn 0.3141 -0.8730 0.3730
vn 0.8889 -0.4510 0.0802
vn -0.0571 -0.9167 -0.3955
vn -0.0571 -0.9167 0.3955
vn -0.5243 -0.7885 -0.3215
vn 0.5243 -0.7885 -0.3215
vn -0.8889 -0.4510 0.0802
vn 0.0571 -0.9167 -0.3955
vn -0.3141 -0.8730 0.3730
vn -0.3141 -0.8730 -0.3730
vn -0.8889 -0.4510 -0.0802
vn -0.5243 -0.7885 0.3215
vn -0.7892 -0.5832 -0.1926
vn -0.7892 -0.5832 0.1926
vn -0.1776 -0.9033 0.3906
vn 0.0571 -0.9167 0.3955
vn 0.1776 -0.9033 0.3906
vn 0.7892 -0.5832 0.1926
vn 0.7892 -0.5832 -0.1926
vn 0.5243 -0.7885 0.3215
vn 0.1776 -0.9033 -0.3906
vn 0.8889 -0.4510 -0.0802
vn -0.1776 -0.9033 -0.3906
vn 0.9437 -0.0000 -0.3307
vn -0.4397 -0.0000 0.8981
vn -0.8388 -0.0000 -0.5445
vn 0.8388 -0.0000 -0.5445
vn -0.1538 -0.0000 0.9881
vn 0.4397 -0.0000 0.8981
vn -0.9437 -0.0000 -0.3307
vn 0.6718 -0.0000 -0.7407
vn 0.1538 -0.0000 0.9881
vn 0.6718 -0.0000 0.7407
vn -0.9939 -0.0000 -0.1107
vn 0.4397 -0.0000 -0.8981
vn 0.8388 -0.0000 0.5445
vn -0.9939 -0.0000 0.1107
vn 0.1538 -0.0000 -0.9881
vn 0.9437 -0.0000 0.3307
vn -0.9437 -0.0000 0.3307
vn -0.1538 -0.0000 -0.9881
vn 0.9939 -0.0000 0.1107
vn -0.8388 -0.0000 0.5445
vn -0.4397 -0.0000 -0.8981
vn 0.9939 -0.0000 -0.1107
vn -0.6718 -0.0000 0.7407
vn -0.6718 -0.0000 -0.7407
vn 0.0986 -0.6549 -0.7492
vn 0.2892 -0.6549 -0.6982
vn 0.4600 -0.6549 -0.5995
vn 0.5995 -0.6549 -0.4600
vn 0.6982 -0.6549 -0.2892
vn 0.7492 -0.6549 -0.0986
vn 0.7492 -0.6549 0.0986
vn 0.6982 -0.6549 0.2892
vn 0.5995 -0.6549 0.4600
vn 0.4600 -0.6549 0.5995
vn 0.2892 -0.6549 0.6982
vn 0.0986 -0.6549 0.7492
vn -0.0986 -0.6549 0.7492
vn -0.2892 -0.6549 0.6982
vn -0.4600 -0.6549 0.5995
vn -0.5995 -0.6549 0.4600
vn -0.6982 -0.6549 0.2892
vn -0.7492 -0.6549 0.0986
vn -0.7492 -0.6549 -0.0986
vn -0.6982 -0.6549 -0.2892
vn -0.5995 -0.6549 -0.4600
vn -0.4600 -0.6549 -0.5995
vn -0.2892 -0.6549 -0.6982
vn -0.0986 -0.6549 -0.7492
vn 0.1242 -0.3076 -0.9434
vn 0.3641 -0.3076 -0.8791
vn 0.5792 -0.3076 -0.7549
vn 0.7549 -0.3076 -0.5792
vn 0.8791 -0.3076 -0.3641
vn 0.9434 -0.3076 -0.1242
vn 0.9434 -0.3076 0.1242
vn 0.8791 -0.3076 0.3641
vn 0.7549 -0.3076 0.5792
vn 0.5792 -0.3076 0.7549
vn 0.3641 -0.3076 0.8791
vn 0.1242 -0.3076 0.9434
vn -0.1242 -0.3076 0.9434
vn -0.3641 -0.3076 0.8791
vn -0.5792 -0.3076 0.7549
vn -0.7549 -0.3076 0.5792
vn -0.8791 -0.3076 0.3641
vn -0.9434 -0.3076 0.1242
vn -0.9434 -0.3076 -0.1242
vn -0.8791 -0.3076 -0.3641
vn -0.7549 -0.3076 -0.5792
vn -0.5792 -0.3076 -0.7549
vn -0.3641 -0.3076 -0.8791
vn -0.1242 -0.3076 -0.9434
vn -0.0000 -1.0000 -0.0000
vn 0.3141 -0.8730 -0.3730
vt 0.250000 0.916667
vt 0.240681 0.953941
vt 0.217652 0.953941
vt 0.208333 0.916667
vt 0.750000 0.875000
vt 0.750000 0.916667
vt 0.708333 0.916667
vt 0.708333 0.875000
vt 0.750000 0.791667
vt 0.750000 0.833333
vt 0.708333 0.833333
vt 0.708333 0.791667
vt 0.666667 0.916667
vt 0.666667 0.875000
vt 0.666667 0.833333
vt 0.666667 0.791667
vt 0.958333 0.916667
vt 0.949015 0.953941
vt 0.925985 0.953941
vt 0.916667 0.916667
vt 0.875000 0.916667
vt 0.865681 0.953941
vt 0.842652 0.953941
vt 0.833333 0.916667
vt 0.625000 0.916667
vt 0.625000 0.875000
vt 0.625000 0.833333
vt 0.625000 0.791667
vt 0.583333 0.833333
vt 0.583333 0.791667
vt 0.740681 0.953941
vt 0.717652 0.953941
vt 0.583333 0.916667
vt 0.583333 0.875000
vt 0.541667 0.916667
vt 0.541667 0.875000
vt 0.541667 0.833333
vt 0.541667 0.791667
vt 0.532348 0.953941
vt 0.509319 0.953941
vt 0.500000 0.916667
vt 0.458333 0.916667
vt 0.449015 0.953941
vt 0.425985 0.953941
vt 0.416667 0.916667
vt 0.500000 0.875000
vt 0.500000 0.833333
vt 0.500000 0.791667
vt 0.458333 0.833333
vt 0.458333 0.791667
vt 0.199015 0.953941
vt 0.175985 0.953941
vt 0.166667 0.916667
vt 0.458333 0.875000
vt 0.416667 0.875000
vt 0.416667 0.833333
vt 0.416667 0.791667
vt 1.000000 0.916667
vt 0.990681 0.953941
vt 0.967652 0.953941
vt 0.907348 0.953941
vt 0.884319 0.953941
vt 0.375000 0.916667
vt 0.375000 0.875000
vt 0.375000 0.833333
vt 0.375000 0.791667
vt 0.333333 0.833333
vt 0.333333 0.791667
vt 0.791667 0.916667
vt 0.782348 0.953941
vt 0.750000 0.953941
vt 0.333333 0.916667
vt 0.333333 0.875000
vt 0.574015 0.953941
vt 0.550985 0.953941
vt 0.291667 0.916667
vt 0.291667 0.875000
vt 0.291667 0.833333
vt 0.291667 0.791667
vt 0.490681 0.953941
vt 0.467652 0.953941
vt 0.250000 0.875000
vt 0.250000 0.833333
vt 0.250000 0.791667
vt 0.208333 0.875000
vt 0.208333 0.833333
vt 0.208333 0.791667
vt 0.125000 0.916667
vt 0.115681 0.953941
vt 0.092652 0.953941
vt 0.083333 0.916667
vt 0.041667 0.916667
vt 0.032348 0.953941
vt 0.009319 0.953941
vt 0.000000 0.916667
vt 0.166667 0.875000
vt 0.166667 0.833333
vt 0.166667 0.791667
vt 0.125000 0.833333
vt 0.125000 0.791667
vt 0.824015 0.953941
vt 0.800985 0.953941
vt 0.125000 0.875000
vt 0.083333 0.875000
vt 0.083333 0.833333
vt 0.083333 0.791667
vt 0.699015 0.953941
vt 0.675985 0.953941
vt 0.615682 0.953941
vt 0.592652 0.953941
vt 0.041667 0.875000
vt 0.041667 0.833333
vt 0.041667 0.791667
vt 0.000000 0.833333
vt 0.000000 0.791667
vt 0.365681 0.953941
vt 0.342652 0.953941
vt 0.000000 0.875000
vt 1.000000 0.875000
vt 0.958333 0.875000
vt 1.000000 0.791667
vt 1.000000 0.833333
vt 0.958333 0.833333
vt 0.958333 0.791667
vt 0.157348 0.953941
vt 0.134319 0.953941
vt 0.074015 0.953941
vt 0.050985 0.953941
vt 0.916667 0.875000
vt 0.916667 0.833333
vt 0.916667 0.791667
vt 0.875000 0.833333
vt 0.875000 0.791667
vt 0.324015 0.953941
vt 0.300985 0.953941
vt 0.875000 0.875000
vt 0.833333 0.875000
vt 0.833333 0.833333
vt 0.833333 0.791667
vt 0.282348 0.953941
vt 0.259319 0.953941
vt 0.657348 0.953941
vt 0.634319 0.953941
vt 0.791667 0.875000
vt 0.791667 0.833333
vt 0.791667 0.791667
vt 0.407348 0.953941
vt 0.384319 0.953941
vt 0.666667 0.750000
vt 0.625000 0.750000
vt 0.541667 0.750000
vt 0.500000 0.750000
vt 0.250000 0.750000
vt 0.208333 0.750000
vt 0.791667 0.750000
vt 0.750000 0.750000
vt 0.125000 0.750000
vt 0.083333 0.750000
vt 0.416667 0.750000
vt 0.375000 0.750000
vt 1.000000 0.750000
vt 0.958333 0.750000
vt 0.291667 0.750000
vt 0.875000 0.750000
vt 0.833333 0.750000
vt 0.166667 0.750000
vt 0.041667 0.750000
vt 0.000000 0.750000
vt 0.916667 0.750000
vt 0.708333 0.750000
vt 0.583333 0.750000
vt 0.458333 0.750000
vt 0.333333 0.750000
s 0
usemtl hat-black
f 36/1/1 182/2/1 183/3/1 39/4/1
f 145/5/2 2/6/2 3/7/2 122/8/2
f 169/9/3 72/10/3 4/11/3 146/12/3
f 122/8/4 3/7/4 6/13/4 123/14/4
f 146/12/5 4/11/5 7/15/5 147/16/5
f 57/17/6 189/18/6 190/19/6 60/20/6
f 63/21/7 191/22/7 192/23/7 66/24/7
f 123/14/8 6/13/8 9/25/8 124/26/8
f 147/16/9 7/15/9 10/27/9 148/28/9
f 148/28/10 10/27/10 13/29/10 149/30/10
f 2/6/11 170/31/11 171/32/11 3/7/11
f 124/26/12 9/25/12 12/33/12 125/34/12
f 125/34/13 12/33/13 15/35/13 126/36/13
f 149/30/14 13/29/14 16/37/14 150/38/14
f 15/35/15 175/39/15 176/40/15 18/41/15
f 21/42/16 177/43/16 178/44/16 24/45/16
f 126/36/17 15/35/17 18/41/17 127/46/17
f 150/38/18 16/37/18 19/47/18 151/48/18
f 151/48/19 19/47/19 22/49/19 152/50/19
f 39/4/20 183/51/20 184/52/20 42/53/20
f 127/46/21 18/41/21 21/42/21 128/54/21
f 128/54/22 21/42/22 24/45/22 129/55/22
f 152/50/23 22/49/23 25/56/23 153/57/23
f 54/58/24 188/59/24 189/60/24 57/17/24
f 60/20/25 190/61/25 191/62/25 63/21/25
f 129/55/26 24/45/26 27/63/26 130/64/26
f 153/57/27 25/56/27 28/65/27 154/66/27
f 154/66/28 28/65/28 31/67/28 155/68/28
f 69/69/29 1/70/29 170/71/29 2/6/29
f 130/64/30 27/63/30 30/72/30 131/73/30
f 12/33/31 174/74/31 175/75/31 15/35/31
f 131/73/32 30/72/32 33/76/32 132/77/32
f 155/68/33 31/67/33 34/78/33 156/79/33
f 18/41/34 176/80/34 177/81/34 21/42/34
f 132/77/35 33/76/35 36/1/35 133/82/35
f 156/79/36 34/78/36 37/83/36 157/84/36
f 133/82/37 36/1/37 39/4/37 134/85/37
f 157/84/38 37/83/38 40/86/38 158/87/38
f 45/88/39 185/89/39 186/90/39 48/91/39
f 51/92/40 187/93/40 188/94/40 54/95/40
f 134/85/41 39/4/41 42/53/41 135/96/41
f 158/87/42 40/86/42 43/97/42 159/98/42
f 159/98/43 43/97/43 46/99/43 160/100/43
f 66/24/44 192/101/44 1/102/44 69/69/44
f 135/96/45 42/53/45 45/88/45 136/103/45
f 136/103/46 45/88/46 48/91/46 137/104/46
f 160/100/47 46/99/47 49/105/47 161/106/47
f 3/7/48 171/107/48 172/108/48 6/13/48
f 9/25/49 173/109/49 174/110/49 12/33/49
f 137/104/50 48/91/50 51/92/50 138/111/50
f 161/106/51 49/105/51 52/112/51 162/113/51
f 162/113/52 52/112/52 55/114/52 163/115/52
f 27/63/53 179/116/53 180/117/53 30/72/53
f 138/111/54 51/92/54 54/95/54 139/118/54
f 139/119/55 54/58/55 57/17/55 140/120/55
f 163/121/56 55/122/56 58/123/56 164/124/56
f 42/53/57 184/125/57 185/126/57 45/88/57
f 48/91/58 186/127/58 187/128/58 51/92/58
f 140/120/59 57/17/59 60/20/59 141/129/59
f 164/124/60 58/123/60 61/130/60 165/131/60
f 165/131/61 61/130/61 64/132/61 166/133/61
f 30/72/62 180/134/62 181/135/62 33/76/62
f 141/129/63 60/20/63 63/21/63 142/136/63
f 142/136/64 63/21/64 66/24/64 143/137/64
f 166/133/65 64/132/65 67/138/65 167/139/65
f 33/76/66 181/140/66 182/141/66 36/1/66
f 6/13/67 172/142/67 173/143/67 9/25/67
f 143/137/68 66/24/68 69/69/68 144/144/68
f 167/139/69 67/138/69 70/145/69 168/146/69
f 168/146/70 70/145/70 72/10/70 169/9/70
f 24/45/71 178/147/71 179/148/71 27/63/71
f 144/144/72 69/69/72 2/6/72 145/5/72
f 8/149/73 11/150/73 76/150/73 75/149/73
f 17/151/74 20/152/74 79/152/74 78/151/74
f 38/153/75 41/154/75 86/154/75 85/153/75
f 71/155/76 73/156/76 97/156/76 96/155/76
f 47/157/77 50/158/77 89/158/77 88/157/77
f 26/159/78 29/160/78 82/160/78 81/159/78
f 56/161/79 59/162/79 92/162/79 91/161/79
f 35/163/80 38/153/80 85/153/80 84/163/80
f 65/164/81 68/165/81 95/165/81 94/164/81
f 44/166/82 47/157/82 88/157/82 87/166/82
f 53/167/83 56/168/83 91/168/83 90/167/83
f 62/169/84 65/164/84 94/164/84 93/169/84
f 50/158/85 53/167/85 90/167/85 89/158/85
f 59/162/86 62/169/86 93/169/86 92/162/86
f 68/165/87 71/155/87 96/155/87 95/165/87
f 73/156/88 5/170/88 74/170/88 97/156/88
f 5/170/89 8/149/89 75/149/89 74/170/89
f 14/171/90 17/151/90 78/151/90 77/171/90
f 23/172/91 26/159/91 81/159/91 80/172/91
f 11/150/92 14/171/92 77/171/92 76/150/92
f 32/173/93 35/163/93 84/163/93 83/173/93
f 20/152/94 23/172/94 80/172/94 79/152/94
f 41/154/95 44/166/95 87/166/95 86/154/95
f 80/172/96 81/159/96 105/159/96 104/172/96
f 95/165/97 96/155/97 120/155/97 119/165/97
f 88/157/98 89/158/98 113/158/98 112/157/98
f 81/159/99 82/160/99 106/160/99 105/159/99
f 96/155/100 97/156/100 121/156/100 120/155/100
f 74/170/101 75/149/101 99/149/101 98/170/101
f 89/158/102 90/167/102 114/167/102 113/158/102
f 82/160/103 83/173/103 107/173/103 106/160/103
f 97/156/104 74/170/104 98/170/104 121/156/104
f 75/149/105 76/150/105 100/150/105 99/149/105
f 90/167/106 91/168/106 115/168/106 114/167/106
f 83/173/107 84/163/107 108/163/107 107/173/107
f 76/150/108 77/171/108 101/171/108 100/150/108
f 91/161/109 92/162/109 116/162/109 115/161/109
f 84/163/110 85/153/110 109/153/110 108/163/110
f 77/171/111 78/151/111 102/151/111 101/171/111
f 92/162/112 93/169/112 117/169/112 116/162/112
f 85/153/113 86/154/113 110/154/113 109/153/113
f 78/151/114 79/152/114 103/152/114 102/151/114
f 93/169/115 94/164/115 118/164/115 117/169/115
f 86/154/116 87/166/116 111/166/116 110/154/116
f 79/152/117 80/172/117 104/172/117 103/152/117
f 94/164/118 95/165/118 119/165/118 118/164/118
f 87/166/119 88/157/119 112/157/119 111/166/119
f 70/145/120 144/144/120 145/5/120 72/10/120
f 67/138/121 143/137/121 144/144/121 70/145/121
f 64/132/122 142/136/122 143/137/122 67/138/122
f 61/130/123 141/129/123 142/136/123 64/132/123
f 58/123/124 140/120/124 141/129/124 61/130/124
f 55/122/125 139/119/125 140/120/125 58/123/125
f 52/112/126 138/111/126 139/118/126 55/114/126
f 49/105/127 137/104/127 138/111/127 52/112/127
f 46/99/128 136/103/128 137/104/128 49/105/128
f 43/97/129 135/96/129 136/103/129 46/99/129
f 40/86/130 134/85/130 135/96/130 43/97/130
f 37/83/131 133/82/131 134/85/131 40/86/131
f 34/78/132 132/77/132 133/82/132 37/83/132
f 31/67/133 131/73/133 132/77/133 34/78/133
f 28/65/134 130/64/134 131/73/134 31/67/134
f 25/56/135 129/55/135 130/64/135 28/65/135
f 22/49/136 128/54/136 129/55/136 25/56/136
f 19/47/137 127/46/137 128/54/137 22/49/137
f 16/37/138 126/36/138 127/46/138 19/47/138
f 13/29/139 125/34/139 126/36/139 16/37/139
f 10/27/140 124/26/140 125/34/140 13/29/140
f 7/15/141 123/14/141 124/26/141 10/27/141
f 4/11/142 122/8/142 123/14/142 7/15/142
f 72/10/143 145/5/143 122/8/143 4/11/143
f 71/155/144 168/146/144 169/9/144 73/156/144
f 68/165/145 167/139/145 168/146/145 71/155/145
f 65/164/146 166/133/146 167/139/146 68/165/146
f 62/169/147 165/131/147 166/133/147 65/164/147
f 59/162/148 164/124/148 165/131/148 62/169/148
f 56/161/149 163/121/149 164/124/149 59/162/149
f 53/167/150 162/113/150 163/115/150 56/168/150
f 50/158/151 161/106/151 162/113/151 53/167/151
f 47/157/152 160/100/152 161/106/152 50/158/152
f 44/166/153 159/98/153 160/100/153 47/157/153
f 41/154/154 158/87/154 159/98/154 44/166/154
f 38/153/155 157/84/155 158/87/155 41/154/155
f 35/163/156 156/79/156 157/84/156 38/153/156
f 32/173/157 155/68/157 156/79/157 35/163/157
f 29/160/158 154/66/158 155/68/158 32/173/158
f 26/159/159 153/57/159 154/66/159 29/160/159
f 23/172/160 152/50/160 153/57/160 26/159/160
f 20/152/161 151/48/161 152/50/161 23/172/161
f 17/151/162 150/38/162 151/48/162 20/152/162
f 14/171/163 149/30/163 150/38/163 17/151/163
f 11/150/164 148/28/164 149/30/164 14/171/164
f 8/149/165 147/16/165 148/28/165 11/150/165
f 5/170/166 146/12/166 147/16/166 8/149/166
f 73/156/167 169/9/167 146/12/167 5/170/167
f 170/71/168 1/102/168 192/23/168 191/62/168 190/19/168 189/60/168 188/94/168 187/128/168 186/90/168 185/126/168 184/52/168 183/3/168 182/141/168 181/135/168 180/117/168 179/148/168 178/44/168 177/81/168 176/40/168 175/75/168 174/110/168 173/143/168 172/108/168 171/32/168
f 29/160/169 32/173/169 83/173/169 82/160/169
