# Blender 5.0.1
# www.blender.org
mtllib item-nose.mtl
o nose
v 0.000030 -0.609878 0.695729
v -0.000000 -0.050907 0.825767
v -0.013685 -0.607158 0.758406
v -0.027559 -0.509173 0.850520
v -0.042473 -0.351836 0.930514
v -0.059158 -0.204943 1.015736
v -0.046458 -0.107992 0.990354
v -0.017005 -0.065124 0.887620
v 0.013775 -0.607161 0.758418
v 0.027673 -0.509173 0.850520
v 0.042528 -0.351836 0.930514
v 0.059158 -0.204943 1.015735
v 0.046458 -0.107993 0.990354
v 0.017005 -0.065124 0.887620
v 0.036126 -0.603461 0.743076
v 0.067824 -0.493061 0.783699
v 0.109073 -0.332009 0.848288
v 0.161627 -0.191076 0.958227
v 0.126925 -0.097102 0.945191
v 0.046458 -0.061138 0.871089
v 0.048841 -0.597067 0.716557
v 0.089419 -0.488137 0.763279
v 0.146274 -0.322998 0.810918
v 0.220777 -0.167056 0.858615
v 0.173383 -0.078240 0.866965
v 0.063463 -0.054234 0.842457
v -0.036022 -0.603462 0.743078
v -0.065451 -0.493061 0.783699
v -0.105903 -0.332008 0.848285
v -0.161627 -0.191076 0.958227
v -0.126925 -0.097102 0.945191
v -0.046458 -0.061138 0.871089
v -0.048743 -0.597070 0.716570
v -0.089305 -0.488137 0.763279
v -0.146221 -0.322998 0.810918
v -0.220777 -0.167056 0.858615
v -0.173383 -0.078240 0.866965
v -0.063463 -0.054234 0.842457
v 0.089419 -0.480437 0.731347
v 0.048863 -0.593370 0.701226
v 0.220777 -0.153189 0.801104
v 0.173383 -0.067349 0.821802
v 0.063463 -0.050248 0.825926
v 0.146274 -0.312413 0.767020
v -0.089305 -0.480437 0.731347
v -0.048775 -0.593372 0.701232
v -0.220777 -0.153189 0.801104
v -0.173383 -0.067349 0.821802
v -0.063463 -0.050248 0.825926
v -0.146221 -0.312413 0.767020
v 0.000039 -0.504995 0.723872
v 0.000009 -0.343157 0.758517
v -0.000021 -0.184776 0.791948
v -0.000009 -0.080606 0.817831
vn -0.0000 0.2533 0.9674
vn -0.0001 -0.6849 0.7286
vn -0.0000 -0.5018 0.8650
vn -0.0000 -0.4532 0.8914
vn 0.4405 0.2809 0.8526
vn -0.0001 -0.9991 0.0433
vn -0.0000 0.9229 0.3851
vn 0.7975 -0.3603 0.4840
vn 0.5965 -0.5437 0.5904
vn 0.7563 -0.4611 0.4641
vn 0.0790 0.9278 0.3645
vn 0.7631 0.3565 0.5391
vn -0.0000 0.9746 0.2240
vn 0.7479 -0.5314 0.3979
vn 0.1673 -0.9859 0.0061
vn 0.7729 -0.4377 0.4594
vn 0.1369 0.9414 0.3083
vn 0.6864 -0.4125 0.5989
vn 0.2890 -0.9530 -0.0912
vn 0.8811 0.4597 0.1109
vn 0.9447 -0.3190 -0.0765
vn -0.0053 0.9743 0.2254
vn 0.9093 -0.4046 -0.0976
vn 0.9493 -0.3056 -0.0737
vn 0.1580 0.9599 0.2315
vn -0.0093 0.9733 0.2292
vn -0.4405 0.2809 0.8526
vn -0.7686 -0.4496 0.4551
vn -0.6017 -0.5464 0.5826
vn -0.8112 -0.3528 0.4664
vn -0.7631 0.3565 0.5391
vn -0.1674 -0.9859 0.0062
vn -0.0790 0.9278 0.3645
vn -0.6573 -0.4131 0.6303
vn -0.7379 -0.5393 0.4058
vn -0.7580 -0.4353 0.4858
vn -0.1369 0.9414 0.3083
vn -0.8811 0.4597 0.1109
vn 0.0053 0.9743 0.2254
vn -0.9092 -0.4048 -0.0976
vn -0.2892 -0.9529 -0.0910
vn -0.9447 -0.3189 -0.0762
vn -0.1580 0.9599 0.2315
vn -0.9492 -0.3059 -0.0738
vn 0.0093 0.9733 0.2292
vn -0.0107 0.9721 0.2344
vn 0.0107 0.9721 0.2344
vn -0.3347 -0.9162 -0.2202
vn 0.3346 -0.9162 -0.2204
vn 0.0147 0.2558 -0.9666
vn 0.0181 0.2055 -0.9785
vn 0.0122 0.2052 -0.9787
vn 0.0051 0.2393 -0.9709
vn 0.0020 0.2538 -0.9672
vn -0.0148 0.2558 -0.9666
vn -0.0181 0.2055 -0.9785
vn -0.0122 0.2052 -0.9787
vn -0.0051 0.2393 -0.9709
vn -0.0020 0.2538 -0.9672
vt 0.166667 0.250000
vt 0.250000 0.250000
vt 0.250000 0.416667
vt 0.166667 0.416667
vt 0.166667 0.750000
vt 0.250000 0.750000
vt 0.250000 0.916667
vt 0.166667 0.916667
vt 0.250000 0.583333
vt 0.166667 0.583333
vt 0.083333 0.250000
vt 0.083333 0.416667
vt 0.187500 1.000000
vt 0.166667 0.083333
vt 0.250000 0.083333
vt 0.083333 0.583333
vt 0.083333 0.750000
vt 0.083333 0.916667
vt 0.083333 0.083333
vt 0.000000 0.250000
vt 1.000000 0.416667
vt 0.229167 0.000000
vt 0.000000 0.416667
vt 1.000000 0.583333
vt 0.104167 1.000000
vt 0.000000 0.750000
vt 1.000000 0.916667
vt 0.000000 0.083333
vt 1.000000 0.250000
vt 0.000000 0.583333
vt 1.000000 0.750000
vt 0.020833 1.000000
vt 0.000000 0.916667
vt 0.458333 0.250000
vt 0.958333 0.416667
vt 0.458333 0.750000
vt 0.958333 0.916667
vt 0.145833 0.000000
vt 0.458333 0.416667
vt 0.958333 0.583333
vt 0.458333 0.583333
vt 0.958333 0.750000
vt 0.458333 0.083333
vt 0.958333 0.250000
vt 0.062500 0.000000
vt 0.041667 0.250000
vt 0.541667 0.416667
vt 0.041667 0.416667
vt 0.541667 0.583333
vt 0.041667 0.750000
vt 0.541667 0.916667
vt 0.041667 0.083333
vt 0.541667 0.250000
vt 0.041667 0.583333
vt 0.541667 0.750000
vt 0.115346 0.780488
vt 0.310467 0.780488
vt 0.141582 0.591837
vt 0.386480 0.591837
vt 0.145833 0.408163
vt 0.390731 0.408163
vt 0.130589 0.219512
vt 0.325711 0.219512
vt 0.166159 0.780488
vt 0.184099 0.591837
vt 0.361281 0.780488
vt 0.188350 0.408163
vt 0.428997 0.591837
vt 0.181402 0.219512
vt 0.433248 0.408163
vt 0.376524 0.219512
s 0
usemtl nose-orange
f 13/1/1 7/2/1 6/3/1 12/4/1
f 10/5/2 4/6/2 3/7/2 9/8/2
f 12/4/3 6/3/3 5/9/3 11/10/3
f 11/10/4 5/9/4 4/6/4 10/5/4
f 19/11/5 13/1/5 12/4/5 18/12/5
f 1/13/6 9/8/6 3/7/6
f 14/14/7 8/15/7 7/2/7 13/1/7
f 17/16/8 11/10/8 10/5/8 16/17/8
f 18/12/9 12/4/9 11/10/9 17/16/9
f 16/17/10 10/5/10 9/8/10 15/18/10
f 20/19/11 14/14/11 13/1/11 19/11/11
f 25/20/12 19/11/12 18/12/12 24/21/12
f 2/22/13 8/15/13 14/14/13
f 24/23/14 18/12/14 17/16/14 23/24/14
f 1/25/15 15/18/15 9/8/15
f 22/26/16 16/17/16 15/18/16 21/27/16
f 26/28/17 20/19/17 19/11/17 25/29/17
f 23/30/18 17/16/18 16/17/18 22/31/18
f 1/32/19 21/33/19 15/18/19
f 42/34/20 25/20/20 24/21/20 41/35/20
f 39/36/21 22/26/21 21/27/21 40/37/21
f 2/38/22 14/14/22 20/19/22
f 41/39/23 24/23/23 23/24/23 44/40/23
f 44/41/24 23/30/24 22/31/24 39/42/24
f 43/43/25 26/28/25 25/29/25 42/44/25
f 2/45/26 20/19/26 26/28/26
f 31/1/27 30/4/27 6/3/27 7/2/27
f 28/5/28 27/8/28 3/7/28 4/6/28
f 30/4/29 29/10/29 5/9/29 6/3/29
f 29/10/30 28/5/30 4/6/30 5/9/30
f 37/11/31 36/12/31 30/4/31 31/1/31
f 1/13/32 3/7/32 27/8/32
f 32/14/33 31/1/33 7/2/33 8/15/33
f 35/16/34 34/17/34 28/5/34 29/10/34
f 36/12/35 35/16/35 29/10/35 30/4/35
f 34/17/36 33/18/36 27/8/36 28/5/36
f 38/19/37 37/11/37 31/1/37 32/14/37
f 48/46/38 47/47/38 36/12/38 37/11/38
f 2/22/39 32/14/39 8/15/39
f 47/48/40 50/49/40 35/16/40 36/12/40
f 1/25/41 27/8/41 33/18/41
f 45/50/42 46/51/42 33/18/42 34/17/42
f 49/52/43 48/53/43 37/11/43 38/19/43
f 50/54/44 45/55/44 34/17/44 35/16/44
f 2/38/45 38/19/45 32/14/45
f 2/45/46 26/28/46 43/43/46
f 2/38/47 49/52/47 38/19/47
f 46/51/48 1/25/48 33/18/48
f 40/37/49 21/33/49 1/32/49
f 1/32/50 51/56/50 39/36/50 40/37/50
f 51/57/51 52/58/51 44/41/51 39/42/51
f 52/59/52 53/60/52 41/39/52 44/40/52
f 53/61/53 54/62/53 42/34/53 41/35/53
f 54/63/54 2/45/54 43/43/54 42/44/54
f 46/51/55 45/50/55 51/64/55 1/25/55
f 45/55/56 50/54/56 52/65/56 51/66/56
f 50/49/57 47/48/57 53/67/57 52/68/57
f 47/47/58 48/46/58 54/69/58 53/70/58
f 48/53/59 49/52/59 2/38/59 54/71/59
