# Blender 5.0.1
# www.blender.org
mtllib item-nose.mtl
o nose
v -0.014444 -0.340670 -0.053556
v -0.015667 0.233209 -0.058006
v -0.012086 -0.323333 0.008232
v -0.008256 -0.206486 0.076133
v -0.012080 -0.034782 0.119484
v -0.015667 0.127996 0.170566
v -0.015667 0.216295 0.121493
v -0.015667 0.233887 0.007695
v 0.014441 -0.323333 0.001137
v 0.045094 -0.206486 0.061838
v 0.070025 -0.034782 0.097484
v 0.098619 0.127996 0.139943
v 0.074083 0.216295 0.097445
v 0.017184 0.233887 -0.001107
v 0.031946 -0.323333 -0.019893
v 0.066087 -0.206486 -0.014948
v 0.112411 -0.034782 -0.001440
v 0.182285 0.127996 0.056281
v 0.139784 0.216295 0.031743
v 0.041232 0.233887 -0.025156
v 0.037167 -0.323333 -0.049532
v 0.081510 -0.206486 -0.040827
v 0.138395 -0.034782 -0.048200
v 0.212899 0.127996 -0.058004
v 0.163832 0.216295 -0.058006
v 0.050034 0.233887 -0.058006
v -0.037743 -0.323333 -0.001217
v -0.062647 -0.206486 0.019546
v -0.095241 -0.034782 0.054196
v -0.129954 0.127996 0.139946
v -0.105417 0.216295 0.097445
v -0.048518 0.233887 -0.001107
v -0.057088 -0.323333 -0.024264
v -0.091124 -0.206486 0.005430
v -0.144134 -0.034782 0.027503
v -0.213609 0.127996 0.056279
v -0.171118 0.216295 0.031743
v -0.072566 0.233887 -0.025156
v 0.073008 -0.206486 -0.072555
v 0.033107 -0.323333 -0.064771
v 0.197587 0.127996 -0.115148
v 0.151808 0.216295 -0.102881
v 0.045633 0.233887 -0.074432
v 0.126708 -0.034782 -0.091817
v -0.099626 -0.206486 -0.026298
v -0.061202 -0.323333 -0.039495
v -0.228921 0.127996 -0.000865
v -0.183142 0.216295 -0.013131
v -0.076967 0.233887 -0.041581
v -0.155821 -0.034782 -0.016114
v -0.013717 -0.232112 -0.050880
v -0.014848 -0.066663 -0.054985
v -0.016074 0.095142 -0.059446
v -0.015871 0.202477 -0.058732
vn 0.2280 0.4730 0.8511
vn 0.2248 -0.4950 0.8393
vn 0.2481 -0.2851 0.9258
vn 0.2518 -0.2316 0.9397
vn 0.6230 0.4730 0.6230
vn 0.0714 -0.9611 0.2669
vn 0.0409 0.9874 0.1526
vn 0.9139 -0.2368 0.3297
vn 0.7577 -0.3902 0.5231
vn 0.8753 -0.3394 0.3445
vn 0.1117 0.9874 0.1117
vn 0.8511 0.4730 0.2280
vn -0.0028 0.9999 -0.0103
vn 0.8547 -0.4233 0.3004
vn 0.2230 -0.9570 0.1856
vn 0.8887 -0.3178 0.3305
vn 0.1526 0.9874 0.0409
vn 0.8387 -0.2606 0.4781
vn 0.3141 -0.9478 0.0553
vn 0.8511 0.4729 -0.2280
vn 0.9126 -0.3280 -0.2441
vn -0.0076 0.9999 -0.0076
vn 0.8783 -0.4162 -0.2353
vn 0.9170 -0.3143 -0.2457
vn 0.1526 0.9874 -0.0409
vn -0.0103 0.9999 -0.0028
vn -0.2280 0.4730 0.8511
vn -0.6006 -0.3304 0.7281
vn -0.4015 -0.3946 0.8265
vn -0.6448 -0.2337 0.7278
vn -0.6230 0.4730 0.6230
vn -0.1003 -0.9570 0.2723
vn -0.0409 0.9874 0.1526
vn -0.4513 -0.2538 0.8555
vn -0.5779 -0.4291 0.6941
vn -0.5835 -0.3093 0.7509
vn -0.1117 0.9874 0.1117
vn -0.8511 0.4729 0.2280
vn 0.0028 0.9999 -0.0103
vn -0.8782 -0.4164 0.2353
vn -0.2444 -0.9477 0.2051
vn -0.9124 -0.3279 0.2451
vn -0.1526 0.9874 0.0409
vn -0.9169 -0.3146 0.2457
vn 0.0076 0.9999 -0.0076
vn -0.0103 0.9999 0.0028
vn 0.0103 0.9999 -0.0028
vn -0.3231 -0.9423 0.0873
vn 0.3233 -0.9424 -0.0861
vn -0.2445 0.0221 -0.9694
vn -0.2412 -0.0296 -0.9700
vn -0.2469 -0.0300 -0.9686
vn -0.2539 0.0050 -0.9672
vn -0.2569 0.0200 -0.9662
vn -0.2730 0.0221 -0.9618
vn -0.2762 -0.0296 -0.9606
vn -0.2705 -0.0300 -0.9623
vn -0.2637 0.0050 -0.9646
vn -0.2607 0.0200 -0.9652
vt 0.166667 0.250000
vt 0.250000 0.250000
vt 0.250000 0.416667
vt 0.166667 0.416667
vt 0.166667 0.750000
vt 0.250000 0.750000
vt 0.250000 0.916667
vt 0.166667 0.916667
vt 0.250000 0.583333
vt 0.166667 0.583333
vt 0.083333 0.250000
vt 0.083333 0.416667
vt 0.187500 1.000000
vt 0.166667 0.083333
vt 0.250000 0.083333
vt 0.083333 0.583333
vt 0.083333 0.750000
vt 0.083333 0.916667
vt 0.083333 0.083333
vt 0.000000 0.250000
vt 1.000000 0.416667
vt 0.229167 0.000000
vt 0.000000 0.416667
vt 1.000000 0.583333
vt 0.104167 1.000000
vt 0.000000 0.750000
vt 1.000000 0.916667
vt 0.000000 0.083333
vt 1.000000 0.250000
vt 0.000000 0.583333
vt 1.000000 0.750000
vt 0.020833 1.000000
vt 0.000000 0.916667
vt 0.458333 0.250000
vt 0.958333 0.416667
vt 0.458333 0.750000
vt 0.958333 0.916667
vt 0.145833 0.000000
vt 0.458333 0.416667
vt 0.958333 0.583333
vt 0.458333 0.583333
vt 0.958333 0.750000
vt 0.458333 0.083333
vt 0.958333 0.250000
vt 0.062500 0.000000
vt 0.041667 0.250000
vt 0.541667 0.416667
vt 0.041667 0.416667
vt 0.541667 0.583333
vt 0.041667 0.750000
vt 0.541667 0.916667
vt 0.041667 0.083333
vt 0.541667 0.250000
vt 0.041667 0.583333
vt 0.541667 0.750000
vt 0.115346 0.780488
vt 0.310467 0.780488
vt 0.141582 0.591837
vt 0.386480 0.591837
vt 0.145833 0.408163
vt 0.390731 0.408163
vt 0.130589 0.219512
vt 0.325711 0.219512
vt 0.166159 0.780488
vt 0.184099 0.591837
vt 0.361281 0.780488
vt 0.188350 0.408163
vt 0.428997 0.591837
vt 0.181402 0.219512
vt 0.433248 0.408163
vt 0.376524 0.219512
s 0
usemtl nose-orange
f 13/1/1 7/2/1 6/3/1 12/4/1
f 10/5/2 4/6/2 3/7/2 9/8/2
f 12/4/3 6/3/3 5/9/3 11/10/3
f 11/10/4 5/9/4 4/6/4 10/5/4
f 19/11/5 13/1/5 12/4/5 18/12/5
f 1/13/6 9/8/6 3/7/6
f 14/14/7 8/15/7 7/2/7 13/1/7
f 17/16/8 11/10/8 10/5/8 16/17/8
f 18/12/9 12/4/9 11/10/9 17/16/9
f 16/17/10 10/5/10 9/8/10 15/18/10
f 20/19/11 14/14/11 13/1/11 19/11/11
f 25/20/12 19/11/12 18/12/12 24/21/12
f 2/22/13 8/15/13 14/14/13
f 24/23/14 18/12/14 17/16/14 23/24/14
f 1/25/15 15/18/15 9/8/15
f 22/26/16 16/17/16 15/18/16 21/27/16
f 26/28/17 20/19/17 19/11/17 25/29/17
f 23/30/18 17/16/18 16/17/18 22/31/18
f 1/32/19 21/33/19 15/18/19
f 42/34/20 25/20/20 24/21/20 41/35/20
f 39/36/21 22/26/21 21/27/21 40/37/21
f 2/38/22 14/14/22 20/19/22
f 41/39/23 24/23/23 23/24/23 44/40/23
f 44/41/24 23/30/24 22/31/24 39/42/24
f 43/43/25 26/28/25 25/29/25 42/44/25
f 2/45/26 20/19/26 26/28/26
f 31/1/27 30/4/27 6/3/27 7/2/27
f 28/5/28 27/8/28 3/7/28 4/6/28
f 30/4/29 29/10/29 5/9/29 6/3/29
f 29/10/30 28/5/30 4/6/30 5/9/30
f 37/11/31 36/12/31 30/4/31 31/1/31
f 1/13/32 3/7/32 27/8/32
f 32/14/33 31/1/33 7/2/33 8/15/33
f 35/16/34 34/17/34 28/5/34 29/10/34
f 36/12/35 35/16/35 29/10/35 30/4/35
f 34/17/36 33/18/36 27/8/36 28/5/36
f 38/19/37 37/11/37 31/1/37 32/14/37
f 48/46/38 47/47/38 36/12/38 37/11/38
f 2/22/39 32/14/39 8/15/39
f 47/48/40 50/49/40 35/16/40 36/12/40
f 1/25/41 27/8/41 33/18/41
f 45/50/42 46/51/42 33/18/42 34/17/42
f 49/52/43 48/53/43 37/11/43 38/19/43
f 50/54/44 45/55/44 34/17/44 35/16/44
f 2/38/45 38/19/45 32/14/45
f 2/45/46 26/28/46 43/43/46
f 2/38/47 49/52/47 38/19/47
f 46/51/48 1/25/48 33/18/48
f 40/37/49 21/33/49 1/32/49
f 1/32/50 51/56/50 39/36/50 40/37/50
f 51/57/51 52/58/51 44/41/51 39/42/51
f 52/59/52 53/60/52 41/39/52 44/40/52
f 53/61/53 54/62/53 42/34/53 41/35/53
f 54/63/54 2/45/54 43/43/54 42/44/54
f 46/51/55 45/50/55 51/64/55 1/25/55
f 45/55/56 50/54/56 52/65/56 51/66/56
f 50/49/57 47/48/57 53/67/57 52/68/57
f 47/47/58 48/46/58 54/69/58 53/70/58
f 48/53/59 49/52/59 2/38/59 54/71/59
